-
http:// www. Speed. Cd       
http:// www. Speed. Cd       the fast  and The Hottest Private Tracker on the net

Please Seed back to make the speed Faster!!!

and don't forget to visit      ...... www. Speed. Cd..........
-[img]http://img577.imageshack.us/img577/5592/dd2f72.jpg[/img]

[color=blue][size=5][b]The.Chaperone.2011.BDRip.XVID.AC3.HQ.Hive-CM8[/b][/size][/color]


[b]Thx Hive

CM8 Doing It Right The First Time :D

Why download a touched up rip of a rip BRrip
Get the real deal BDRip
Enjoy

Source Bluray

Video: 720x384 @bitrate 1800 2pass
Audio: DTS to AC3 5.1 @448
Sample: yes included
Subs: yes english in srt /subs[/b]


[url]http://www.imdb.com/title/tt1663187/[/url]


General
Complete name                    : The.Chaperone.2011.BDRip.XVID.AC3.HQ.Hive-CM8.avi
Format                           : AVI
Format/Info                      : Audio Video Interleave
File size                        : 1.63 GiB
Duration                         : 1h 43mn
Overall bit rate                 : 2 256 Kbps
Writing application              : Nandub v1.0rc2
Writing library                  : Nandub build 1853/release

Video
ID                               : 0
Format                           : MPEG-4 Visual
Format profile                   : Advanced Simple@L5
Format settings, BVOP            : Yes
Format settings, QPel            : Yes
Format settings, GMC             : No warppoints
Format settings, Matrix          : Default (H.263)
Muxing mode                      : Packed bitstream
Codec ID                         : XVID
Codec ID/Hint                    : XviD
Duration                         : 1h 43mn
Bit rate                         : 1 798 Kbps
Width                            : 720 pixels
Height                           : 384 pixels
Display aspect ratio             : 1.850
Frame rate                       : 23.976 fps
Color space                      : YUV
Chroma subsampling               : 4:2:0
Bit depth                        : 8 bits
Scan type                        : Progressive
Bits/(Pixel*Frame)               : 0.271
Stream size                      : 1.30 GiB (80%)
Writing library                  : XviD 1.2.1 (UTC 2008-12-04)

Audio
ID                               : 1
Format                           : AC-3
Format/Info                      : Audio Coding 3
Mode extension                   : CM (complete main)
Codec ID                         : 2000
Duration                         : 1h 43mn
Bit rate mode                    : Constant
Bit rate                         : 448 Kbps
Channel(s)                       : 6 channels
Channel positions                : Front: L C R, Side: L R, LFE
Sampling rate                    : 48.0 KHz
Bit depth                        : 16 bits
Stream size                      : 332 MiB (20%)
Alignment                        : Split accross interleaves
Interleave, duration             : 42 ms (1.00 video frame)
Interleave, preload duration     : 500 ms



Paul Levesque	 ... 	Ray Bradstone
Kevin Corrigan	... 	Phillip Larue
Jose Zuniga	... 	Carlos
Kevin Rankin	... 	Goldy
Enrico Colantoni	... 	Dr. Etman
Israel Broussard	... 	Josh
Jake Austin Walker	... 	Ted
Ashley Taylor	... 	Meredith


An ex-con on the run from his criminal past, hides out from
those he ratted on by chaperoning a field trip to New Orleans.
 


[img]http://img508.imageshack.us/img508/3075/29724809.png[/img]
[img]http://img695.imageshack.us/img695/7078/chch.png[/img]
[img]http://img854.imageshack.us/img854/4129/chchch.png[/img]
[img]http://img696.imageshack.us/img696/6674/chchchch.png[/img]
[img]http://img194.imageshack.us/img194/6138/chchchchch.png[/img]
[img]http://img824.imageshack.us/img824/4119/chchchchchch.png[/img]
[img]http://img21.imageshack.us/img21/1510/chchchchchchch.png[/img]





Greetz

ViSiON,LUSi,SANTi,MAGNET,THC,T0XiCiNK,LKRG,IMAGiNE,WBZ,FLAWL3SS,NOVA
Vik,Rapeseed,D2U,SAFC,goldadvance,MEMORY100,KaN1vE,Unevano,Pinnz,Wayne,Mr Hive
and all P2P groups 
Great Work Guys :D

CM8@hushmail.com